<?xml version="1.0" standalone="no"?>
<svg viewBox="0 0 200 200" xmlns="http://www.w3.org/2000/svg">
  <path fill="#FE7235" d="M37,-65.5C48.6,-57.5,58.8,-48.7,65.5,-37.7C72.1,-26.6,75.1,-13.3,76.8,1C78.6,15.3,79.1,30.6,73.9,44.2C68.7,57.7,57.8,69.5,44.5,78.3C31.3,87.1,15.6,92.9,1.2,90.7C-13.2,88.6,-26.4,78.6,-38.7,69.3C-50.9,59.9,-62.3,51.2,-68.6,39.8C-74.9,28.3,-76.3,14.2,-78.2,-1.1C-80.1,-16.4,-82.6,-32.7,-77.7,-46.7C-72.9,-60.8,-60.7,-72.4,-46.5,-78.8C-32.3,-85.2,-16.2,-86.5,-1.7,-83.5C12.8,-80.6,25.5,-73.5,37,-65.5Z" transform="translate(100 100)" />
</svg>
